<svg xmlns="http://www.w3.org/2000/svg" version="1.1" xmlns:xlink="http://www.w3.org/1999/xlink" xmlns:svgjs="http://svgjs.com/svgjs" width="1920" height="1080" preserveAspectRatio="none" viewBox="0 0 1920 1080"><g mask="url(&quot;#SvgjsMask1005&quot;)" fill="none"><rect width="1920" height="1080" x="0" y="0" fill="rgba(186, 225, 255, 1)"></rect><path d="M0,790.691C160.9,781.359,337.999,823.806,469.981,731.304C601.036,639.452,640.911,466.333,683.071,311.948C720.034,176.593,696.362,40.088,697.055,-100.221C697.887,-268.847,770.02,-448.68,687.552,-595.767C601.817,-748.682,430.189,-844.41,258.894,-881.713C92.654,-917.915,-76.133,-860.23,-233.85,-796.421C-379.613,-737.448,-528.99,-663.662,-611.266,-529.665C-689.13,-402.854,-625.853,-239.276,-664.225,-95.501C-710.173,76.659,-888.438,216.015,-857.096,391.423C-825.417,568.717,-669.631,711.881,-506.374,787.933C-350.205,860.683,-171.994,800.667,0,790.691" fill="#a4d7ff"></path><path d="M1920 1997.88C2095.782 2009.693 2280.354 1964.699 2417.458 1854.059 2549.328 1747.643 2572.353 1564.154 2646.367 1411.721 2722.571 1254.777 2865.94 1119.336 2858.8450000000003 945.014 2851.5789999999997 766.496 2736.429 608.1469999999999 2608.58 483.342 2486.874 364.533 2327.321 293.077 2159.9610000000002 262.769 2003.633 234.45899999999995 1840.618 251.716 1696.295 318.131 1563.125 379.414 1480.1680000000001 504.986 1387.243 618.364 1296.932 728.552 1195.671 832.657 1161.275 970.912 1124.835 1117.384 1137.0990000000002 1272.07 1189.385 1413.661 1244.271 1562.292 1339.987 1691.019 1463.731 1789.9679999999998 1596.965 1896.505 1749.7930000000001 1986.442 1920 1997.88" fill="#d0ebff"></path></g><defs><mask id="SvgjsMask1005"><rect width="1920" height="1080" fill="#ffffff"></rect></mask></defs></svg>